@startuml
class "Car" as C_0003455377108037598845
class C_0003455377108037598845 {
+Car() : void
..
-ChangeDirection(int speed) : void
+GetDirection() const : Direction
+GetGear() const : Gear
+GetSpeed() const : int
+IsTurnedOn() const : bool
+SetGear(Gear gear) : void
+SetSpeed(int speed) : void
+TurnOffEngine() : void
+TurnOnEngine() : void
__
-m_direction : Direction
-m_engineOn : bool
-m_gear : Gear
-m_speed : int
}
enum "Car::Gear" as C_0017176640437073137238
enum C_0017176640437073137238 {
Reverse
Neutral
First
Second
Third
Fourth
Fifth
}
enum "Car::Direction" as C_0012609280542857642114
enum C_0012609280542857642114 {
Still
Forward
Backward
}
abstract "ICommand" as C_0002676627159612885501
abstract C_0002676627159612885501 {
+~ICommand() constexpr = default : void
..
{abstract} +Execute() = 0 : void
+ParseArgs(const std::vector<std::string> &) : void
__
}
class "Menu" as C_0001585106001913427481
class C_0001585106001913427481 {
+AddItem(const std::string & shortcut, const std::string & description, std::unique_ptr<ICommand> && command) : void
-ExecuteCommand(const std::string & line) : bool
+Exit() : void
{static} -ParseLine(const std::string & line) : std::pair<std::string,std::vector<std::string>>
+Run() : void
+ShowInstructions() const : void
__
-m_exit : bool
-m_items : std::vector<Item>
}
class "Menu::Item" as C_0016052373628440326051
class C_0016052373628440326051 {
+Item(std::string shortcut, std::string description, std::unique_ptr<ICommand> && command) : void
__
+command : std::unique_ptr<ICommand>
+description : std::string
+shortcut : std::string
}
class "CarInfoCommand" as C_0018337605510163204667
class C_0018337605510163204667 {
+CarInfoCommand(Car & car) : void
..
{static} -DirectionToString(const Car::Direction direction) : std::string
+Execute() : void
{static} -GearToString(const Car::Gear gear) : std::string
__
-m_car : Car &
}
class "SetGearCommand" as C_0009747152288654467454
class C_0009747152288654467454 {
+SetGearCommand(Car & car) : void
..
+Execute() : void
+ParseArgs(const std::vector<std::string> & args) : void
{static} -ParseGear(const int gear) : Car::Gear
__
-m_car : Car &
-m_gear : Car::Gear
}
class "SetSpeedCommand" as C_0002837178260861512151
class C_0002837178260861512151 {
+SetSpeedCommand(Car & car) : void
..
+Execute() : void
+ParseArgs(const std::vector<std::string> & args) : void
__
-m_car : Car &
-m_speed : int
}
class "TurnOffEngineCommand" as C_0012514021938519155487
class C_0012514021938519155487 {
+TurnOffEngineCommand(Car & car) : void
..
+Execute() : void
__
-m_car : Car &
}
class "TurnOnEngineCommand" as C_0012272594887326055424
class C_0012272594887326055424 {
+TurnOnEngineCommand(Car & car) : void
..
+Execute() : void
__
-m_car : Car &
}
C_0003455377108037598845 o-- C_0012609280542857642114 : -m_direction
C_0003455377108037598845 o-- C_0017176640437073137238 : -m_gear
C_0017176640437073137238 --+ C_0003455377108037598845
C_0012609280542857642114 --+ C_0003455377108037598845
C_0001585106001913427481 ..> C_0002676627159612885501
C_0016052373628440326051 --+ C_0001585106001913427481
C_0016052373628440326051 o-- C_0002676627159612885501 : +command
C_0018337605510163204667 ..> C_0012609280542857642114
C_0018337605510163204667 ..> C_0017176640437073137238
C_0018337605510163204667 --> C_0003455377108037598845 : -m_car
C_0002676627159612885501 <|-- C_0018337605510163204667
C_0009747152288654467454 --> C_0003455377108037598845 : -m_car
C_0009747152288654467454 o-- C_0017176640437073137238 : -m_gear
C_0002676627159612885501 <|-- C_0009747152288654467454
C_0002837178260861512151 --> C_0003455377108037598845 : -m_car
C_0002676627159612885501 <|-- C_0002837178260861512151
C_0012514021938519155487 --> C_0003455377108037598845 : -m_car
C_0002676627159612885501 <|-- C_0012514021938519155487
C_0012272594887326055424 --> C_0003455377108037598845 : -m_car
C_0002676627159612885501 <|-- C_0012272594887326055424

'Generated with clang-uml, version 0.6.2-27-g4e76f03
'LLVM version clang version 19.1.7 (Fedora 19.1.7-5.fc41)
@enduml
